<svg width="92" height="92" viewBox="0 0 92 92" fill="none" xmlns="http://www.w3.org/2000/svg">
<path d="M91.265 45.638C91.266 36.6126 88.5906 27.7896 83.5772 20.2847C78.5637 12.7799 71.4374 6.93018 63.0994 3.47544C54.7614 0.0207043 45.5861 -0.883929 36.734 0.875941C27.8818 2.63581 19.7503 6.98114 13.3678 13.3624C6.98523 19.7437 2.63829 27.8744 0.876677 36.7262C-0.88494 45.578 0.0178895 54.7534 3.47098 63.0921C6.92408 71.4308 12.7723 78.5583 20.2762 83.5732C27.7801 88.5881 36.6026 91.2652 45.628 91.266C51.6208 91.2676 57.5552 90.0885 63.0923 87.7962C68.6294 85.5038 73.6606 82.1431 77.8986 77.9059C82.1365 73.6688 85.4983 68.6383 87.7917 63.1016C90.0852 57.565 91.2654 51.6308 91.265 45.638V45.638ZM48.765 24.68L73.693 49.608C74.1039 50.0169 74.43 50.5029 74.6524 51.0382C74.8749 51.5734 74.9895 52.1474 74.9895 52.727C74.9895 53.3067 74.8749 53.8806 74.6524 54.4159C74.43 54.9511 74.1039 55.4372 73.693 55.846L70.565 58.974C70.1561 59.3849 69.6701 59.711 69.1349 59.9335C68.5996 60.156 68.0257 60.2705 67.446 60.2705C66.8663 60.2705 66.2924 60.156 65.7571 59.9335C65.2219 59.711 64.7359 59.3849 64.327 58.974L45.628 40.279L26.938 58.974C26.5291 59.3849 26.0431 59.711 25.5079 59.9335C24.9726 60.156 24.3987 60.2705 23.819 60.2705C23.2393 60.2705 22.6654 60.156 22.1301 59.9335C21.5949 59.711 21.1089 59.3849 20.7 58.974L17.572 55.846C17.1611 55.4372 16.835 54.9511 16.6125 54.4159C16.3901 53.8806 16.2755 53.3067 16.2755 52.727C16.2755 52.1474 16.3901 51.5734 16.6125 51.0382C16.835 50.5029 17.1611 50.0169 17.572 49.608L42.505 24.675C42.9155 24.2638 43.4031 23.9376 43.9398 23.715C44.4766 23.4924 45.0519 23.3778 45.633 23.3778C46.2141 23.3778 46.7894 23.4924 47.3262 23.715C47.8629 23.9376 48.3505 24.2638 48.761 24.675L48.765 24.68Z" fill="white"/>
</svg>
