<svg width="92" height="92" viewBox="0 0 92 92" fill="none" xmlns="http://www.w3.org/2000/svg">
<path d="M-0.00102406 45.628C-0.00201254 54.6534 2.67338 63.4764 7.68682 70.9813C12.7003 78.4861 19.8266 84.3358 28.1646 87.7905C36.5026 91.2453 45.6778 92.1499 54.53 90.39C63.3822 88.6302 71.5136 84.2848 77.8962 77.9036C84.2787 71.5223 88.6257 63.3916 90.3873 54.5398C92.1489 45.688 91.2461 36.5126 87.793 28.1739C84.3399 19.8352 78.4916 12.7077 70.9877 7.69281C63.4838 2.67789 54.6614 0.000758276 45.636 -3.25124e-05C39.6432 -0.00160846 33.7087 1.17746 28.1717 3.46981C22.6346 5.76216 17.6034 9.1229 13.3654 13.36C9.12743 17.5972 5.7657 22.6277 3.47226 28.1643C1.17881 33.701 -0.00141858 39.6351 -0.00102406 45.628V45.628ZM42.499 66.586L17.571 41.658C17.1601 41.2491 16.834 40.7631 16.6115 40.2278C16.389 39.6926 16.2745 39.1186 16.2745 38.539C16.2745 37.9593 16.389 37.3854 16.6115 36.8501C16.834 36.3149 17.1601 35.8288 17.571 35.42L20.699 32.292C21.1078 31.8811 21.5939 31.555 22.1291 31.3325C22.6644 31.11 23.2383 30.9955 23.818 30.9955C24.3976 30.9955 24.9716 31.11 25.5068 31.3325C26.0421 31.555 26.5281 31.8811 26.937 32.292L45.636 50.987L64.326 32.292C64.7348 31.8811 65.2209 31.555 65.7561 31.3325C66.2914 31.11 66.8653 30.9955 67.445 30.9955C68.0246 30.9955 68.5986 31.11 69.1338 31.3325C69.6691 31.555 70.1551 31.8811 70.564 32.292L73.692 35.42C74.1029 35.8288 74.4289 36.3148 74.6514 36.8501C74.8739 37.3854 74.9885 37.9593 74.9885 38.539C74.9885 39.1186 74.8739 39.6926 74.6514 40.2278C74.4289 40.7631 74.1029 41.2491 73.692 41.658L48.759 66.591C48.3484 67.0022 47.8609 67.3284 47.3241 67.551C46.7874 67.7736 46.212 67.8881 45.631 67.8881C45.0499 67.8881 44.4746 67.7736 43.9378 67.551C43.4011 67.3284 42.9135 67.0022 42.503 66.591L42.499 66.586Z" fill="#4285F4"/>
</svg>
