<svg xmlns="http://www.w3.org/2000/svg" xmlns:xlink="http://www.w3.org/1999/xlink" width="58.556" height="58.547" viewBox="0 0 58.556 58.547">
  <defs>
    <filter id="Icon_awesome-instagram" x="0" y="0" width="58.556" height="58.547" filterUnits="userSpaceOnUse">
      <feOffset dy="3" input="SourceAlpha"/>
      <feGaussianBlur stdDeviation="3" result="blur"/>
      <feFlood flood-opacity="0.161"/>
      <feComposite operator="in" in2="blur"/>
      <feComposite in="SourceGraphic"/>
    </filter>
  </defs>
  <g transform="matrix(1, 0, 0, 1, 0, 0)" filter="url(#Icon_awesome-instagram)">
    <path id="Icon_awesome-instagram-2" data-name="Icon awesome-instagram" d="M20.277,12.115a10.4,10.4,0,1,0,10.4,10.4A10.379,10.379,0,0,0,20.277,12.115Zm0,17.154a6.759,6.759,0,1,1,6.759-6.759,6.771,6.771,0,0,1-6.759,6.759ZM33.523,11.69A2.425,2.425,0,1,1,31.1,9.265,2.419,2.419,0,0,1,33.523,11.69Zm6.885,2.461c-.154-3.248-.9-6.125-3.275-8.5s-5.248-3.112-8.5-3.275c-3.348-.19-13.381-.19-16.729,0-3.239.154-6.116.9-8.5,3.266S.3,10.894.137,14.142c-.19,3.348-.19,13.381,0,16.729.154,3.248.9,6.125,3.275,8.5s5.248,3.112,8.5,3.275c3.348.19,13.381.19,16.729,0,3.248-.154,6.125-.9,8.5-3.275s3.112-5.248,3.275-8.5c.19-3.348.19-13.372,0-16.72ZM36.084,34.463a6.843,6.843,0,0,1-3.854,3.854c-2.669,1.059-9,.814-11.952.814s-9.292.235-11.952-.814a6.843,6.843,0,0,1-3.854-3.854c-1.059-2.669-.814-9-.814-11.952s-.235-9.292.814-11.952A6.843,6.843,0,0,1,8.325,6.7c2.669-1.059,9-.814,11.952-.814s9.292-.235,11.952.814a6.843,6.843,0,0,1,3.854,3.854c1.059,2.669.814,9,.814,11.952S37.142,31.8,36.084,34.463Z" transform="translate(9.01 3.76)" fill="#4285f4"/>
  </g>
</svg>
